<mxfile host="www.draw.io" modified="2020-01-28T07:02:57.769Z" agent="Mozilla/5.0 (Windows NT 10.0; Win64; x64) AppleWebKit/537.36 (KHTML, like Gecko) Chrome/79.0.3945.130 Safari/537.36" etag="_G-MKs8Z1MBlmBl-nSQr" version="12.5.8" type="github">
  <diagram id="HMXvvva3QuYESI--928S" name="Page-1">
    <mxGraphModel dx="782" dy="388" grid="1" gridSize="10" guides="1" tooltips="1" connect="1" arrows="1" fold="1" page="1" pageScale="1" pageWidth="850" pageHeight="1100" math="0" shadow="0">
      <root>
        <mxCell id="0"/>
        <mxCell id="1" parent="0"/>
        <mxCell id="GB1BSZHJOrDCvy8-58CV-1" value="Master branch" style="rounded=0;whiteSpace=wrap;html=1;fillColor=#1ba1e2;strokeColor=#000000;fontColor=#ffffff;strokeWidth=3;" parent="1" vertex="1">
          <mxGeometry x="80" y="50" width="120" height="60" as="geometry"/>
        </mxCell>
        <mxCell id="GB1BSZHJOrDCvy8-58CV-2" value="Testing Airflow DAGs branch" style="rounded=0;whiteSpace=wrap;html=1;strokeColor=#000000;strokeWidth=3;fillColor=#008a00;fontColor=#ffffff;" parent="1" vertex="1">
          <mxGeometry x="240" y="50" width="120" height="60" as="geometry"/>
        </mxCell>
        <mxCell id="GB1BSZHJOrDCvy8-58CV-3" value="Developer branch" style="rounded=0;whiteSpace=wrap;html=1;strokeColor=#000000;strokeWidth=3;fillColor=#d80073;fontColor=#ffffff;" parent="1" vertex="1">
          <mxGeometry x="400" y="50" width="120" height="60" as="geometry"/>
        </mxCell>
        <mxCell id="GB1BSZHJOrDCvy8-58CV-4" value="c0" style="ellipse;whiteSpace=wrap;html=1;aspect=fixed;strokeColor=#000000;strokeWidth=3;fillColor=#1ba1e2;fontColor=#ffffff;" parent="1" vertex="1">
          <mxGeometry x="80" y="160" width="40" height="40" as="geometry"/>
        </mxCell>
        <mxCell id="GB1BSZHJOrDCvy8-58CV-5" value="c1" style="ellipse;whiteSpace=wrap;html=1;aspect=fixed;strokeColor=#000000;strokeWidth=3;fillColor=#1ba1e2;fontColor=#ffffff;" parent="1" vertex="1">
          <mxGeometry x="160" y="160" width="40" height="40" as="geometry"/>
        </mxCell>
        <mxCell id="GB1BSZHJOrDCvy8-58CV-7" value="" style="endArrow=none;html=1;strokeWidth=3;entryX=0;entryY=0.5;entryDx=0;entryDy=0;exitX=1;exitY=0.5;exitDx=0;exitDy=0;" parent="1" source="GB1BSZHJOrDCvy8-58CV-4" target="GB1BSZHJOrDCvy8-58CV-5" edge="1">
          <mxGeometry width="50" height="50" relative="1" as="geometry">
            <mxPoint x="40" y="270" as="sourcePoint"/>
            <mxPoint x="90" y="220" as="targetPoint"/>
          </mxGeometry>
        </mxCell>
        <mxCell id="GB1BSZHJOrDCvy8-58CV-8" value="c7" style="ellipse;whiteSpace=wrap;html=1;aspect=fixed;strokeColor=#000000;strokeWidth=3;fillColor=#1ba1e2;fontColor=#ffffff;" parent="1" vertex="1">
          <mxGeometry x="640" y="160" width="40" height="40" as="geometry"/>
        </mxCell>
        <mxCell id="GB1BSZHJOrDCvy8-58CV-10" value="" style="endArrow=none;html=1;strokeWidth=3;entryX=0;entryY=0.5;entryDx=0;entryDy=0;exitX=1;exitY=0.5;exitDx=0;exitDy=0;" parent="1" source="GB1BSZHJOrDCvy8-58CV-5" target="GB1BSZHJOrDCvy8-58CV-8" edge="1">
          <mxGeometry width="50" height="50" relative="1" as="geometry">
            <mxPoint x="40" y="270" as="sourcePoint"/>
            <mxPoint x="90" y="220" as="targetPoint"/>
          </mxGeometry>
        </mxCell>
        <mxCell id="GB1BSZHJOrDCvy8-58CV-11" value="" style="edgeStyle=elbowEdgeStyle;elbow=horizontal;endArrow=none;html=1;strokeWidth=3;exitX=1;exitY=0.5;exitDx=0;exitDy=0;endFill=0;" parent="1" source="GB1BSZHJOrDCvy8-58CV-5" target="GB1BSZHJOrDCvy8-58CV-12" edge="1">
          <mxGeometry width="50" height="50" relative="1" as="geometry">
            <mxPoint x="80" y="270" as="sourcePoint"/>
            <mxPoint x="130" y="220" as="targetPoint"/>
          </mxGeometry>
        </mxCell>
        <mxCell id="GB1BSZHJOrDCvy8-58CV-12" value="c2" style="ellipse;whiteSpace=wrap;html=1;aspect=fixed;fillColor=#008a00;strokeColor=#000000;fontColor=#ffffff;strokeWidth=3;" parent="1" vertex="1">
          <mxGeometry x="250" y="220" width="40" height="40" as="geometry"/>
        </mxCell>
        <mxCell id="07p8KE8XoiepafXxSfn6-2" value="c3" style="ellipse;whiteSpace=wrap;html=1;aspect=fixed;fillColor=#008a00;strokeColor=#000000;fontColor=#ffffff;strokeWidth=3;" parent="1" vertex="1">
          <mxGeometry x="330" y="220" width="40" height="40" as="geometry"/>
        </mxCell>
        <mxCell id="07p8KE8XoiepafXxSfn6-3" value="" style="endArrow=none;html=1;strokeWidth=3;entryX=0;entryY=0.5;entryDx=0;entryDy=0;exitX=1;exitY=0.5;exitDx=0;exitDy=0;" parent="1" source="GB1BSZHJOrDCvy8-58CV-12" target="07p8KE8XoiepafXxSfn6-2" edge="1">
          <mxGeometry width="50" height="50" relative="1" as="geometry">
            <mxPoint x="210" y="190" as="sourcePoint"/>
            <mxPoint x="610" y="190" as="targetPoint"/>
          </mxGeometry>
        </mxCell>
        <mxCell id="07p8KE8XoiepafXxSfn6-4" value="c4" style="ellipse;whiteSpace=wrap;html=1;aspect=fixed;fillColor=#d80073;strokeColor=#000000;fontColor=#ffffff;strokeWidth=3;" parent="1" vertex="1">
          <mxGeometry x="420" y="276" width="40" height="40" as="geometry"/>
        </mxCell>
        <mxCell id="07p8KE8XoiepafXxSfn6-5" value="c5" style="ellipse;whiteSpace=wrap;html=1;aspect=fixed;fillColor=#d80073;strokeColor=#000000;fontColor=#ffffff;strokeWidth=3;" parent="1" vertex="1">
          <mxGeometry x="490" y="276" width="40" height="40" as="geometry"/>
        </mxCell>
        <mxCell id="07p8KE8XoiepafXxSfn6-8" value="c6" style="ellipse;whiteSpace=wrap;html=1;aspect=fixed;fillColor=#008a00;strokeColor=#000000;fontColor=#ffffff;strokeWidth=3;" parent="1" vertex="1">
          <mxGeometry x="570" y="220" width="40" height="40" as="geometry"/>
        </mxCell>
        <mxCell id="07p8KE8XoiepafXxSfn6-9" value="" style="endArrow=none;html=1;strokeWidth=3;entryX=0;entryY=0.5;entryDx=0;entryDy=0;exitX=1;exitY=0.5;exitDx=0;exitDy=0;" parent="1" source="07p8KE8XoiepafXxSfn6-2" target="07p8KE8XoiepafXxSfn6-8" edge="1">
          <mxGeometry width="50" height="50" relative="1" as="geometry">
            <mxPoint x="210" y="190" as="sourcePoint"/>
            <mxPoint x="640" y="190" as="targetPoint"/>
          </mxGeometry>
        </mxCell>
        <mxCell id="07p8KE8XoiepafXxSfn6-14" value="" style="edgeStyle=elbowEdgeStyle;elbow=horizontal;endArrow=none;html=1;strokeWidth=3;exitX=1;exitY=0.5;exitDx=0;exitDy=0;endFill=0;entryX=0;entryY=0.5;entryDx=0;entryDy=0;" parent="1" source="07p8KE8XoiepafXxSfn6-2" target="07p8KE8XoiepafXxSfn6-4" edge="1">
          <mxGeometry width="50" height="50" relative="1" as="geometry">
            <mxPoint x="210" y="190" as="sourcePoint"/>
            <mxPoint x="260" y="250" as="targetPoint"/>
          </mxGeometry>
        </mxCell>
        <mxCell id="07p8KE8XoiepafXxSfn6-15" value="" style="endArrow=none;html=1;strokeWidth=3;entryX=0;entryY=0.5;entryDx=0;entryDy=0;exitX=1;exitY=0.5;exitDx=0;exitDy=0;" parent="1" source="07p8KE8XoiepafXxSfn6-4" target="07p8KE8XoiepafXxSfn6-5" edge="1">
          <mxGeometry width="50" height="50" relative="1" as="geometry">
            <mxPoint x="230" y="196" as="sourcePoint"/>
            <mxPoint x="660" y="196" as="targetPoint"/>
          </mxGeometry>
        </mxCell>
        <mxCell id="07p8KE8XoiepafXxSfn6-16" value="" style="edgeStyle=elbowEdgeStyle;elbow=horizontal;endArrow=none;html=1;strokeWidth=3;endFill=0;entryX=1;entryY=0.5;entryDx=0;entryDy=0;exitX=0;exitY=0.5;exitDx=0;exitDy=0;" parent="1" source="07p8KE8XoiepafXxSfn6-8" target="07p8KE8XoiepafXxSfn6-5" edge="1">
          <mxGeometry width="50" height="50" relative="1" as="geometry">
            <mxPoint x="520" y="230" as="sourcePoint"/>
            <mxPoint x="430" y="300" as="targetPoint"/>
          </mxGeometry>
        </mxCell>
        <mxCell id="07p8KE8XoiepafXxSfn6-17" value="" style="edgeStyle=elbowEdgeStyle;elbow=horizontal;endArrow=none;html=1;strokeWidth=3;endFill=0;entryX=1;entryY=0.5;entryDx=0;entryDy=0;exitX=0;exitY=0.5;exitDx=0;exitDy=0;" parent="1" source="GB1BSZHJOrDCvy8-58CV-8" target="07p8KE8XoiepafXxSfn6-8" edge="1">
          <mxGeometry width="50" height="50" relative="1" as="geometry">
            <mxPoint x="660" y="210" as="sourcePoint"/>
            <mxPoint x="540" y="300" as="targetPoint"/>
          </mxGeometry>
        </mxCell>
        <mxCell id="07p8KE8XoiepafXxSfn6-20" value="" style="endArrow=classic;html=1;strokeWidth=3;exitX=1;exitY=0.5;exitDx=0;exitDy=0;endFill=1;" parent="1" edge="1">
          <mxGeometry width="50" height="50" relative="1" as="geometry">
            <mxPoint x="80" y="350" as="sourcePoint"/>
            <mxPoint x="680" y="350" as="targetPoint"/>
          </mxGeometry>
        </mxCell>
        <mxCell id="07p8KE8XoiepafXxSfn6-21" value="Time" style="text;html=1;align=center;verticalAlign=middle;resizable=0;points=[];autosize=1;fontSize=16;fontFamily=Helvetica;fontStyle=1" parent="1" vertex="1">
          <mxGeometry x="355" y="355" width="50" height="20" as="geometry"/>
        </mxCell>
        <mxCell id="07p8KE8XoiepafXxSfn6-22" value="Share Library" style="text;html=1;align=center;verticalAlign=middle;resizable=0;points=[];autosize=1;fontSize=24;fontFamily=Helvetica;fontStyle=1" parent="1" vertex="1">
          <mxGeometry x="80" y="281" width="170" height="30" as="geometry"/>
        </mxCell>
      </root>
    </mxGraphModel>
  </diagram>
</mxfile>
